<?xml version="1.0" encoding="UTF-8"?>
<svg xmlns="http://www.w3.org/2000/svg" id="a" width="865.76" height="682.89" viewBox="0 0 865.76 682.89">
  <g>
    <path d="M697.08,339.59H303.01c-9.65-.01-17.47-7.85-17.46-17.5,0-.94,.08-1.87,.23-2.8l36.69-224.38c1.72-10.58,10.84-18.36,21.56-18.37h396.2c9.46,0,17.13,7.67,17.13,17.13,0,.96-.08,1.92-.24,2.87l-38,224.43c-1.82,10.75-11.13,18.63-22.04,18.62Z" fill="#e6e7e8"></path>
    <path d="M697.09,340.09H303.01c-4.8,0-9.32-1.88-12.71-5.28s-5.26-7.92-5.25-12.72c0-.96,.08-1.93,.24-2.88l36.69-224.38c1.76-10.87,11.04-18.78,22.05-18.79h396.2c9.72,0,17.63,7.91,17.63,17.63,0,.99-.08,1.99-.25,2.96l-38,224.43c-1.86,11.03-11.33,19.04-22.52,19.04ZM344.03,77.04c-10.52,.01-19.38,7.56-21.07,17.95l-36.69,224.38c-.15,.89-.22,1.81-.22,2.72,0,4.54,1.76,8.8,4.96,12.01s7.46,4.98,12,4.99h394.08c10.7,0,19.75-7.65,21.53-18.2l38-224.43c.16-.91,.24-1.85,.24-2.79,0-9.17-7.46-16.63-16.63-16.63H344.03Z" fill="#002346"></path>
  </g>
  <g>
    <path d="M690.56,325.82H311.18c-10.38,0-18.28-8.87-16.61-18.62l35.33-205.83c1.66-9.7,10.46-16.82,20.77-16.82h381.43c10.2,0,18,8.75,16.25,18.34l-36.57,205.87c-1.78,9.85-10.73,17.06-21.22,17.06Z" fill="#fff"></path>
    <path d="M690.56,326.32H311.18c-5.27,0-10.19-2.25-13.5-6.17-3.08-3.65-4.39-8.4-3.6-13.03l35.33-205.83c1.71-9.99,10.65-17.24,21.26-17.24h381.43c5.21,0,10.06,2.23,13.31,6.13,3.01,3.6,4.25,8.27,3.43,12.8l-36.57,205.87c-1.83,10.12-10.96,17.47-21.71,17.47ZM350.67,85.05c-10.12,0-18.65,6.9-20.28,16.4l-35.33,205.83c-.74,4.34,.49,8.79,3.38,12.22,3.12,3.7,7.76,5.82,12.74,5.82h379.38c10.27,0,18.98-7,20.73-16.65l36.57-205.87c.77-4.24-.4-8.61-3.21-11.98-3.06-3.67-7.63-5.77-12.54-5.77H350.67Z" fill="#002346"></path>
  </g>
  <g>
    <polygon points="540.5 128.87 610.58 128.87 583.51 292.24 573.61 292.24 511.41 217.05 448.75 217.67 448.75 205.19 516.69 205.19 573.61 272.13 576.7 272.13 598.98 141.24 540.5 141.24 540.5 128.87" fill="#002346"></polygon>
    <path d="M583.93,292.74h-10.56l-.15-.18-62.05-75.01-62.93,.62v-13.48h68.67l.15,.18,56.77,66.76h2.44l22.11-129.89h-58.39v-13.37h71.17l-.1,.58-27.14,163.79Zm-10.09-1h9.24l26.9-162.37h-68.99v11.37h58.57l-22.45,131.89h-3.74l-.15-.18-56.77-66.76h-67.21v11.48l62.39-.62,.15,.18,62.05,75.01Z" fill="#002346"></path>
  </g>
  <g>
    <path d="M750.35,196.32h-114.51c-6.39,0-11.57-5.18-11.57-11.57,0-.72,.07-1.43,.2-2.14l21.1-111.43c1.5-7.99,8.52-13.74,16.65-13.64l116.2,1.54c4.84,.06,8.72,4.04,8.65,8.89,0,.45-.05,.91-.12,1.35l-19,112.08c-1.44,8.6-8.88,14.91-17.6,14.92Z" fill="#fff"></path>
    <path d="M750.35,196.82h-114.51c-6.66,0-12.07-5.42-12.07-12.07,0-.75,.07-1.5,.21-2.23l21.1-111.43c1.55-8.24,8.73-14.18,17.15-14.05l116.2,1.54c5.11,.07,9.21,4.28,9.15,9.39,0,.48-.05,.96-.13,1.43l-19,112.08c-1.48,8.88-9.09,15.33-18.09,15.34Zm-88.34-138.78c-7.81,0-14.5,5.54-15.95,13.23l-21.1,111.43c-.13,.67-.19,1.36-.19,2.05,0,6.1,4.97,11.07,11.07,11.07h114.51c8.51,0,15.71-6.11,17.11-14.5l19-112.08c.07-.42,.11-.85,.12-1.28,.06-4.56-3.6-8.32-8.16-8.38l-116.2-1.54c-.07,0-.14,0-.21,0Z" fill="#002346"></path>
  </g>
  <g>
    <path d="M674.78,98.85s24.14,0,38.37-11.14c0,0,6.67,9.29,32.89,11.14,0,0-8.37,63.33-52,73.57,0,0-19.43-6.12-23.13-30.01-.33-2.2-.49-4.42-.45-6.64,.18-12.42,1.62-24.79,4.32-36.92Z" fill="#02733E"></path>
    <path d="M694.02,172.94l-.13-.04c-.2-.06-19.77-6.48-23.48-30.41-.34-2.22-.49-4.48-.46-6.72,.17-12.43,1.63-24.89,4.33-37.02l.09-.39h.4c.24,0,24.13-.13,38.06-11.03l.41-.32,.31,.42c.07,.09,6.91,9.13,32.52,10.93l.53,.04-.07,.53c-.08,.64-8.92,63.79-52.38,73.99l-.13,.03Zm-18.84-73.59c-2.63,11.95-4.05,24.2-4.22,36.43-.03,2.19,.11,4.39,.44,6.56,3.45,22.29,21,28.98,22.66,29.56,40.57-9.65,50.46-66.49,51.4-72.59-22.95-1.72-30.78-9.08-32.4-10.91-13.23,10.05-34.69,10.87-37.89,10.94Z" fill="#002346"></path>
  </g>
  <g>
    <path d="M677.89,102.87s20.11,.62,34.34-9.59c0,0,5.74,8.06,28.4,9.6,0,0-6.12,49.57-46.35,63.19,0,0-31.24-6.65-16.39-63.2Z" fill="#fff"></path>
    <path d="M694.31,166.59l-.13-.03c-.36-.08-8.79-1.97-14.86-11.82-7.24-11.75-7.88-29.24-1.91-51.99l.1-.38h.4c.2,.02,20.11,.5,34.03-9.48l.4-.29,.29,.41c.06,.08,5.94,7.89,28.03,9.39l.53,.04-.06,.52c-.06,.5-6.62,50.04-46.69,63.6l-.13,.04Zm-16.04-63.21c-5.79,22.27-5.16,39.36,1.87,50.81,5.44,8.85,13.04,11.09,14.11,11.37,37.14-12.68,44.99-56.89,45.8-62.21-19.66-1.44-26.46-7.73-27.92-9.38-13.07,9.13-30.94,9.43-33.86,9.42Z" fill="#002346"></path>
  </g>
  <g>
    <ellipse cx="702.68" cy="130.27" rx="16.39" ry="13.55" transform="translate(211.99 649.84) rotate(-57.14)" fill="#e6e7e8"></ellipse>
    <path d="M700.18,146.38c-2.4,0-4.68-.65-6.66-1.93-3.17-2.05-5.18-5.45-5.67-9.59-.48-4.1,.59-8.44,3.03-12.22h0c5.05-7.82,14.46-10.77,20.97-6.56,6.51,4.2,7.69,13.99,2.64,21.81-2.44,3.77-5.95,6.54-9.89,7.79-1.49,.47-2.97,.71-4.42,.71Zm5.01-31.22c-4.92,0-10.16,2.92-13.46,8.03h0c-2.31,3.58-3.33,7.69-2.88,11.56,.45,3.84,2.31,6.99,5.22,8.87,2.91,1.88,6.55,2.27,10.23,1.11,3.72-1.18,7.04-3.8,9.35-7.38,4.75-7.36,3.7-16.52-2.34-20.43-1.85-1.19-3.95-1.76-6.12-1.76Z" fill="#002346"></path>
  </g>
  <path d="M701.4,136.63c-.59,0-1.17-.21-1.62-.6l-8.41-7.18c-1.09-.84-1.3-2.41-.46-3.51,.84-1.09,2.41-1.3,3.51-.46,.07,.05,.13,.1,.19,.16l6.66,5.68c5.99-5.85,12.52-11.12,19.51-15.73,1.19-.7,2.72-.29,3.42,.9,.66,1.13,.34,2.57-.73,3.31-7.3,4.86-14.1,10.44-20.28,16.66-.47,.48-1.12,.76-1.79,.76Z" fill="#002346"></path>
  <g>
    <ellipse cx="436.7" cy="211.54" rx="22.89" ry="20.41" transform="translate(23.34 465.68) rotate(-57.43)" fill="#02733E"></ellipse>
    <path d="M434.47,234.25c-3.7,0-7.25-1.01-10.36-3-4.72-3.01-7.83-7.9-8.78-13.76-.94-5.84,.39-11.95,3.75-17.21,3.36-5.26,8.34-9.03,14.04-10.63,5.71-1.61,11.46-.83,16.18,2.18,4.72,3.01,7.83,7.9,8.78,13.76,.94,5.84-.39,11.95-3.75,17.21-3.36,5.26-8.34,9.03-14.04,10.63-1.95,.55-3.9,.82-5.81,.82Zm4.46-44.42c-1.82,0-3.68,.26-5.54,.78-5.46,1.54-10.24,5.16-13.47,10.21-3.22,5.05-4.5,10.91-3.6,16.51,.9,5.58,3.86,10.22,8.33,13.08,4.47,2.86,9.93,3.59,15.37,2.06,5.46-1.54,10.24-5.16,13.47-10.21,3.22-5.05,4.5-10.91,3.6-16.51-.9-5.58-3.86-10.22-8.33-13.08-2.94-1.88-6.32-2.84-9.83-2.84Z" fill="#002346"></path>
  </g>
  <g>
    <ellipse cx="436.3" cy="211.32" rx="10.68" ry="9.85" transform="translate(75.57 535.18) rotate(-67.76)" fill="#fff"></ellipse>
    <path d="M435.74,222.39c-1.25,0-2.49-.24-3.67-.72-5.28-2.16-7.68-8.56-5.35-14.27,2.33-5.7,8.53-8.59,13.81-6.43,5.28,2.16,7.68,8.56,5.35,14.27-1.13,2.76-3.18,4.95-5.78,6.16-1.41,.66-2.89,.99-4.36,.99Zm1.14-21.14c-3.83,0-7.58,2.49-9.23,6.53-2.12,5.2,.03,11.01,4.8,12.96,2.3,.94,4.87,.85,7.23-.25,2.37-1.11,4.25-3.11,5.28-5.64,2.12-5.2-.03-11.01-4.8-12.96-1.07-.44-2.18-.64-3.28-.64Z" fill="#002346"></path>
  </g>
  <g>
    <ellipse cx="513.73" cy="211.5" rx="22.89" ry="20.41" transform="translate(23.81 473.46) rotate(-50.51)" fill="#02733E"></ellipse>
    <path d="M511.27,233.92c-4.62,0-8.94-1.51-12.42-4.38-4.32-3.56-6.82-8.79-7.06-14.72-.23-5.91,1.83-11.82,5.79-16.63h0c3.97-4.81,9.37-7.96,15.22-8.87,5.86-.91,11.48,.55,15.8,4.11,8.9,7.33,9.46,21.4,1.26,31.35-3.97,4.81-9.37,7.96-15.22,8.87-1.14,.18-2.26,.26-3.37,.26Zm4.9-43.85c-1.06,0-2.13,.08-3.22,.25-5.6,.87-10.79,3.89-14.6,8.51h0c-3.81,4.62-5.79,10.29-5.57,15.96,.22,5.64,2.6,10.61,6.69,13.99,4.09,3.38,9.42,4.76,15.01,3.9,5.6-.87,10.79-3.89,14.6-8.51,7.85-9.53,7.35-22.96-1.13-29.94-3.3-2.72-7.4-4.15-11.79-4.15Z" fill="#002346"></path>
  </g>
  <g>
    <ellipse cx="513.41" cy="211.32" rx="10.68" ry="9.85" transform="translate(78.65 556.61) rotate(-60.83)" fill="#fff"></ellipse>
    <path d="M512.7,222.31c-1.66,0-3.28-.41-4.75-1.23-4.98-2.78-6.59-9.42-3.59-14.81,3-5.38,9.5-7.5,14.49-4.72,2.42,1.35,4.12,3.64,4.8,6.45,.67,2.79,.24,5.76-1.21,8.36-1.45,2.6-3.75,4.53-6.48,5.42-1.08,.35-2.18,.53-3.26,.53Zm1.41-20.98c-3.46,0-6.95,1.98-8.87,5.43-2.74,4.9-1.3,10.93,3.2,13.45,2.17,1.21,4.73,1.44,7.21,.62,2.49-.82,4.59-2.58,5.92-4.96s1.72-5.09,1.11-7.64c-.61-2.53-2.14-4.59-4.31-5.81-1.33-.75-2.79-1.1-4.25-1.1Z" fill="#002346"></path>
  </g>
  <g>
    <ellipse cx="592.62" cy="211.51" rx="22.89" ry="20.41" transform="translate(52.52 534.35) rotate(-50.51)" fill="#02733E"></ellipse>
    <path d="M590.17,233.93c-4.62,0-8.94-1.51-12.42-4.38-8.9-7.33-9.46-21.4-1.26-31.35h0c3.97-4.81,9.37-7.96,15.22-8.87,5.86-.91,11.48,.55,15.79,4.11,4.32,3.56,6.82,8.79,7.06,14.72,.23,5.91-1.83,11.82-5.79,16.63-3.97,4.81-9.37,7.96-15.22,8.87-1.14,.18-2.26,.26-3.37,.26Zm-12.91-35.09c-7.85,9.53-7.35,22.96,1.13,29.94,4.09,3.37,9.42,4.76,15.01,3.9,5.6-.87,10.79-3.89,14.6-8.51,3.81-4.62,5.79-10.29,5.57-15.96-.22-5.64-2.6-10.61-6.69-13.99-4.09-3.38-9.42-4.76-15.01-3.9-5.6,.87-10.79,3.89-14.6,8.51h0Z" fill="#002346"></path>
  </g>
  <g>
    <ellipse cx="592.31" cy="211.32" rx="10.68" ry="9.85" transform="translate(119.1 625.52) rotate(-60.83)" fill="#fff"></ellipse>
    <path d="M591.61,222.32c-1.66,0-3.28-.41-4.75-1.23-2.42-1.35-4.12-3.64-4.8-6.45-.67-2.79-.24-5.76,1.21-8.36h0c3-5.38,9.5-7.5,14.49-4.72,2.42,1.35,4.12,3.64,4.8,6.45,.67,2.79,.24,5.76-1.21,8.36s-3.75,4.53-6.48,5.42c-1.08,.35-2.18,.53-3.26,.53Zm-7.46-15.55h0c-1.33,2.38-1.72,5.09-1.11,7.64,.61,2.53,2.14,4.59,4.32,5.81,2.17,1.21,4.73,1.44,7.21,.62,2.49-.82,4.59-2.58,5.92-4.96,1.33-2.38,1.72-5.09,1.11-7.64-.61-2.53-2.14-4.59-4.32-5.81-4.5-2.51-10.39-.57-13.12,4.33Z" fill="#002346"></path>
  </g>
  <g>
    <ellipse cx="423.07" cy="287.05" rx="22.89" ry="20.41" transform="translate(-46.59 489.06) rotate(-57.43)" fill="#02733E"></ellipse>
    <path d="M420.84,309.75c-3.62,0-7.19-.96-10.36-2.98-9.71-6.21-11.97-20.1-5.03-30.97h0c6.94-10.87,20.49-14.66,30.21-8.46,9.72,6.21,11.97,20.1,5.03,30.97-4.68,7.33-12.37,11.44-19.85,11.44Zm4.46-44.39c-7.16,0-14.52,3.95-19.01,10.98h0c-6.65,10.4-4.53,23.68,4.73,29.59,9.25,5.91,22.19,2.25,28.83-8.15,6.65-10.4,4.53-23.68-4.73-29.59-3-1.92-6.39-2.83-9.83-2.83Z" fill="#002346"></path>
  </g>
  <g>
    <ellipse cx="422.68" cy="286.81" rx="10.67" ry="9.84" transform="translate(-2.78 569.49) rotate(-67.76)" fill="#fff"></ellipse>
    <path d="M422.1,297.87c-1.23,0-2.46-.23-3.65-.72-2.56-1.05-4.53-3.11-5.54-5.81-1-2.69-.93-5.68,.19-8.44h0c2.33-5.7,8.52-8.58,13.8-6.43,2.56,1.05,4.53,3.11,5.54,5.81,1,2.69,.93,5.68-.19,8.44-1.81,4.42-5.93,7.14-10.15,7.14Zm1.15-21.11c-3.82,0-7.57,2.49-9.22,6.52h0c-1.03,2.52-1.1,5.26-.18,7.71,.91,2.44,2.68,4.3,4.98,5.24,4.76,1.95,10.37-.69,12.49-5.88,1.03-2.52,1.1-5.26,.18-7.71-.91-2.44-2.68-4.3-4.98-5.24-1.07-.44-2.17-.64-3.27-.64Z" fill="#002346"></path>
  </g>
  <g>
    <ellipse cx="500.11" cy="287" rx="22.89" ry="20.41" transform="translate(-39.42 490.44) rotate(-50.51)" fill="#02733E"></ellipse>
    <path d="M497.66,309.43c-4.62,0-8.94-1.51-12.42-4.38-8.9-7.33-9.46-21.4-1.26-31.35h0c8.2-9.95,22.11-12.09,31.01-4.75,8.9,7.33,9.46,21.39,1.26,31.35-3.97,4.81-9.37,7.96-15.22,8.87-1.14,.18-2.26,.26-3.37,.26Zm-12.91-35.09h0c-7.85,9.53-7.34,22.96,1.13,29.94,4.1,3.38,9.42,4.76,15.01,3.9,5.6-.87,10.79-3.89,14.6-8.51,7.85-9.53,7.35-22.96-1.13-29.94-8.47-6.98-21.75-4.91-29.6,4.62Z" fill="#002346"></path>
  </g>
  <g>
    <ellipse cx="499.74" cy="286.82" rx="10.67" ry="9.84" transform="translate(5.72 583.39) rotate(-60.83)" fill="#fff"></ellipse>
    <path d="M499.03,297.8c-1.62,0-3.25-.39-4.74-1.22-4.98-2.78-6.59-9.42-3.58-14.79s9.49-7.49,14.47-4.71c4.98,2.78,6.59,9.42,3.58,14.79-2.11,3.77-5.93,5.94-9.74,5.94Zm1.42-20.96c-3.46,0-6.94,1.98-8.86,5.43-2.73,4.9-1.3,10.92,3.2,13.43,4.5,2.51,10.38,.57,13.11-4.33,2.73-4.9,1.3-10.92-3.2-13.43-1.33-.74-2.79-1.1-4.25-1.1Z" fill="#002346"></path>
  </g>
  <g>
    <ellipse cx="578.92" cy="287" rx="22.88" ry="20.4" transform="translate(-10.73 551.26) rotate(-50.51)" fill="#02733E"></ellipse>
    <path d="M576.49,309.4c-4.49,0-8.87-1.42-12.44-4.36-8.89-7.33-9.46-21.39-1.26-31.33,3.96-4.81,9.37-7.96,15.21-8.86,5.87-.91,11.47,.55,15.79,4.11,4.32,3.56,6.82,8.78,7.05,14.71,.23,5.91-1.83,11.81-5.79,16.62-4.91,5.96-11.86,9.11-18.56,9.11Zm4.88-43.82c-1.06,0-2.13,.08-3.21,.25-5.6,.87-10.78,3.89-14.59,8.51h0c-7.85,9.52-7.34,22.95,1.12,29.93,8.47,6.98,21.74,4.91,29.59-4.62,3.81-4.62,5.78-10.29,5.56-15.95-.22-5.64-2.59-10.6-6.69-13.98-3.3-2.72-7.4-4.14-11.78-4.14Z" fill="#002346"></path>
  </g>
  <g>
    <ellipse cx="578.92" cy="287" rx="10.65" ry="9.83" transform="translate(44.76 650.57) rotate(-60.61)" fill="#fff"></ellipse>
    <path d="M578.21,297.97c-1.67,0-3.3-.42-4.77-1.25-4.96-2.79-6.54-9.43-3.52-14.79h0c3.02-5.36,9.51-7.45,14.47-4.65,4.96,2.79,6.54,9.43,3.52,14.79-1.46,2.59-3.76,4.5-6.49,5.38-1.07,.35-2.15,.52-3.22,.52Zm-7.42-15.54c-2.75,4.88-1.34,10.9,3.14,13.42,2.16,1.22,4.72,1.45,7.19,.65,2.48-.8,4.59-2.55,5.92-4.92,2.75-4.88,1.34-10.9-3.14-13.42-4.48-2.52-10.36-.61-13.11,4.27h0Z" fill="#002346"></path>
  </g>
  <g>
    <ellipse cx="449.07" cy="136.03" rx="22.89" ry="20.41" transform="translate(92.68 441.25) rotate(-57.43)" fill="#02733E"></ellipse>
    <path d="M446.84,158.73c-3.62,0-7.19-.96-10.36-2.98-9.72-6.21-11.97-20.1-5.03-30.97h0c6.94-10.87,20.49-14.66,30.21-8.46,4.72,3.01,7.83,7.9,8.78,13.76,.94,5.84-.39,11.95-3.75,17.21-4.68,7.33-12.36,11.44-19.85,11.44Zm-14.55-33.41c-6.65,10.4-4.53,23.68,4.73,29.59,9.25,5.91,22.19,2.25,28.83-8.15,3.22-5.05,4.5-10.91,3.6-16.51-.9-5.58-3.86-10.22-8.33-13.08-9.25-5.91-22.18-2.25-28.83,8.15h0Z" fill="#002346"></path>
  </g>
  <g>
    <ellipse cx="448.68" cy="135.84" rx="10.68" ry="9.85" transform="translate(153.13 499.72) rotate(-67.76)" fill="#fff"></ellipse>
    <path d="M448.12,146.91c-1.25,0-2.49-.24-3.67-.72-2.57-1.05-4.53-3.12-5.54-5.82-1-2.69-.93-5.69,.19-8.45,1.13-2.76,3.18-4.95,5.78-6.16,2.61-1.22,5.46-1.32,8.03-.27,2.57,1.05,4.53,3.12,5.54,5.82,1,2.69,.93,5.69-.19,8.45-1.13,2.76-3.18,4.95-5.78,6.16-1.41,.66-2.89,.99-4.36,.99Zm1.12-21.14c-1.32,0-2.66,.3-3.94,.9-2.37,1.11-4.25,3.11-5.28,5.63-1.03,2.52-1.1,5.26-.18,7.72,.91,2.44,2.68,4.3,4.98,5.24,2.3,.94,4.87,.85,7.23-.25,2.37-1.11,4.25-3.11,5.28-5.63,1.03-2.52,1.1-5.26,.18-7.72-.91-2.44-2.68-4.3-4.98-5.24-1.06-.43-2.17-.65-3.29-.65Z" fill="#002346"></path>
  </g>
  <g>
    <ellipse cx="526.1" cy="136.01" rx="22.89" ry="20.41" transform="translate(86.57 455.52) rotate(-50.51)" fill="#02733E"></ellipse>
    <path d="M523.66,158.42c-4.49,0-8.87-1.42-12.44-4.36-8.9-7.33-9.46-21.4-1.26-31.35h0c8.2-9.95,22.12-12.09,31.01-4.75,8.9,7.33,9.46,21.4,1.26,31.35-4.91,5.96-11.87,9.11-18.57,9.11Zm-12.93-35.07h0c-7.85,9.53-7.35,22.96,1.13,29.94,8.47,6.98,21.75,4.91,29.6-4.62,7.85-9.53,7.35-22.96-1.13-29.94-8.47-6.98-21.75-4.91-29.6,4.62Z" fill="#002346"></path>
  </g>
  <g>
    <ellipse cx="525.78" cy="135.81" rx="10.68" ry="9.85" transform="translate(150.92 528.71) rotate(-60.83)" fill="#fff"></ellipse>
    <path d="M525.07,146.8c-1.63,0-3.25-.39-4.74-1.23-2.42-1.35-4.12-3.64-4.8-6.45-.67-2.79-.24-5.76,1.21-8.36s3.75-4.53,6.48-5.42c2.74-.9,5.58-.65,8.01,.7,2.42,1.35,4.12,3.64,4.8,6.45,.67,2.79,.24,5.76-1.21,8.36-2.11,3.77-5.93,5.94-9.75,5.94Zm1.41-20.98c-.98,0-1.97,.16-2.95,.48-2.49,.82-4.59,2.58-5.92,4.96s-1.72,5.09-1.11,7.64c.61,2.53,2.14,4.59,4.32,5.81,4.5,2.51,10.39,.57,13.13-4.33,1.33-2.38,1.72-5.09,1.11-7.64-.61-2.53-2.14-4.59-4.32-5.81-1.31-.73-2.77-1.1-4.26-1.1Z" fill="#002346"></path>
  </g>
  <g>
    <ellipse cx="605" cy="136" rx="22.89" ry="20.41" transform="translate(115.3 516.41) rotate(-50.51)" fill="#02733E"></ellipse>
    <path d="M602.55,158.42c-4.62,0-8.94-1.51-12.42-4.38-8.9-7.33-9.46-21.4-1.26-31.35h0c3.97-4.81,9.37-7.96,15.22-8.87,5.86-.91,11.48,.55,15.79,4.11,4.32,3.56,6.82,8.79,7.06,14.72,.23,5.91-1.83,11.82-5.79,16.63-3.97,4.81-9.37,7.96-15.22,8.87-1.14,.18-2.26,.26-3.37,.26Zm-12.91-35.09c-7.85,9.53-7.35,22.96,1.13,29.94,4.1,3.37,9.43,4.76,15.01,3.9,5.6-.87,10.79-3.89,14.6-8.51,3.81-4.62,5.79-10.29,5.57-15.96-.22-5.64-2.6-10.61-6.69-13.99-4.09-3.37-9.42-4.76-15.01-3.9-5.6,.87-10.79,3.89-14.6,8.51h0Z" fill="#002346"></path>
  </g>
  <g>
    <ellipse cx="604.68" cy="135.82" rx="10.68" ry="9.85" transform="translate(191.37 597.61) rotate(-60.83)" fill="#fff"></ellipse>
    <path d="M603.97,146.81c-1.63,0-3.25-.39-4.74-1.23-2.42-1.35-4.12-3.64-4.8-6.45-.67-2.79-.24-5.76,1.21-8.36,3-5.38,9.5-7.5,14.49-4.72,4.98,2.78,6.59,9.42,3.59,14.81-2.11,3.77-5.93,5.94-9.75,5.94Zm1.42-20.98c-3.46,0-6.95,1.98-8.87,5.43-1.33,2.38-1.72,5.09-1.11,7.64,.61,2.53,2.14,4.59,4.32,5.81,4.5,2.52,10.39,.57,13.13-4.33,2.74-4.9,1.3-10.93-3.2-13.45-1.33-.75-2.79-1.1-4.25-1.1Z" fill="#002346"></path>
  </g>
  <g>
    <path d="M376.32,403.04c-10.27,21-27.67,37.66-49.09,47l-39.22,17.23c-51.26,29.04-63.56,13.61-65.11,11.21-.06-.09,.03-.2,.13-.16,3.44,1.42,34.83,12.47,76.06-33.13h0c6.61-7.37,12.72-15.16,18.31-23.33,0,0,25.37-29.7,56-33.72,0,0,6.43,.85,7.54-1.32,.38,4.14-1.58,9.95-4.62,16.22Z" fill="#B8D9CD"></path>
    <path d="M238.68,485.26c-11.03,0-15.12-4.82-16.21-6.51-.15-.23-.13-.51,.04-.72,.17-.21,.45-.27,.7-.17,3.41,1.4,34.47,12.38,75.5-33.01,6.57-7.32,12.71-15.15,18.27-23.28,.29-.34,25.88-29.94,56.35-33.93h.07s.07,0,.07,0c2.35,.31,6.34,.3,7.03-1.05l.79-1.54,.16,1.72c.35,3.83-1.22,9.37-4.67,16.48h0c-10.31,21.08-27.83,37.86-49.34,47.24l-39.22,17.23c-24.04,13.62-39.6,17.53-49.52,17.53Zm-14.52-5.99c3.55,3.76,18.21,13.28,63.6-12.44l39.26-17.25c21.29-9.29,38.64-25.89,48.84-46.76h0c3.04-6.28,4.59-11.27,4.62-14.86-2.05,1.24-6.29,.78-7.09,.68-30.05,3.98-55.37,33.25-55.62,33.54-5.55,8.12-11.72,15.98-18.32,23.34-38.24,42.29-68.12,36.1-75.29,33.75Z" fill="#002346"></path>
  </g>
  <g>
    <path d="M355.15,555.88l-4.88-108.92-18.25-38.91s20.35-17.41,41.39-19.88c2.59,.22,5.18-.24,7.54-1.32,1.62,11.59,2.31,23.3,2.05,35v134s-12.38,10.86-27.85,.03Z" fill="#f2b3c1"></path>
    <path d="M369.16,561.16c-4.21,0-9.1-1.22-14.31-4.87l-.2-.14v-.25s-4.89-108.82-4.89-108.82l-18.37-39.16,.29-.25c.21-.18,20.71-17.54,41.66-20h.05s.05,0,.05,0c2.5,.21,5.02-.23,7.29-1.28l.61-.28,.09,.67c1.62,11.58,2.31,23.39,2.05,35.08v134.22l-.17,.15c-.08,.07-5.76,4.93-14.16,4.93Zm-13.53-5.54c14.08,9.7,25.3,1.29,26.86,0v-133.77c.25-11.43-.41-22.96-1.96-34.28-2.25,.92-4.7,1.3-7.13,1.1-19.28,2.29-38.22,17.41-40.78,19.52l18.13,38.65v.1s4.87,108.67,4.87,108.67Z" fill="#002346"></path>
  </g>
  <g>
    <path d="M355.15,555.88s-13.92,16.71-10.52,21.35l69.62,30.31s7.74-11.14-4-23.51c0,0-25-15.79-27.2-28.16-.02,.01-13.36,10.84-27.9,.01Z" fill="#02733E"></path>
    <path d="M414.42,608.17l-70.12-30.53-.08-.11c-3.53-4.82,9.09-20.22,10.54-21.97l.3-.36,.38,.28c13.6,10.13,25.92,1.07,27.28,0l.11-.07,.59-.28,.12,.65c2.14,12.01,26.73,27.67,26.97,27.82l.1,.08c11.88,12.52,4.13,24.02,4.05,24.14l-.23,.34Zm-69.46-31.33l69.1,30.08c1.18-1.96,6.13-11.64-4.13-22.49-1.58-1-24.22-15.56-27.21-27.69-2.87,1.97-14.76,9-27.49-.16-3.93,4.79-12.56,16.68-10.27,20.27Z" fill="#002346"></path>
  </g>
  <g>
    <path d="M344.63,577.23s-3.09,4.33,.62,6.81l62.19,26.92s5,1.23,6.81-3.41l-69.62-30.32Z" fill="#002346"></path>
    <path d="M408.87,611.6c-.9,0-1.53-.15-1.55-.15l-62.27-26.95c-1.18-.78-1.84-1.74-2.06-2.89-.42-2.32,1.16-4.57,1.23-4.67l.24-.33,70.43,30.67-.17,.45c-1.29,3.3-4.08,3.87-5.84,3.87Zm-64.05-33.74c-.38,.65-1.11,2.14-.84,3.57,.16,.88,.68,1.61,1.55,2.19l62.11,26.88c.11,.02,4.2,.96,5.95-2.69l-68.77-29.95Z" fill="#002346"></path>
  </g>
  <g>
    <path d="M303.01,437.16s11.55-1.11,16.05,15.58c1.16,4.31,2.51,8.58,4.27,12.69,4.74,11.09,14.56,30.07,30.83,44.09l47.62,51.63s14.84,0,25-10.84c0,0-51.46-76.14-61.88-99.09-.04-.07-.08-.13-.12-.2-4.96-7.83-8.81-16.28-11.91-25.02-2.04-5.76-7.37-15.62-20.89-22.52,0,0-13.33,10.85-19.11,20.22-1.39,2.27-2.91,4.47-4.54,6.58l-5.32,6.88Z" fill="#f2b3c1"></path>
    <path d="M401.78,561.64h-.22l-47.77-51.79c-16.55-14.26-26.48-33.83-30.92-44.23-1.57-3.68-2.93-7.73-4.29-12.75-4.33-16.05-15.07-15.26-15.52-15.21l-1.14,.1,6.02-7.79c1.61-2.09,3.13-4.29,4.51-6.54,5.76-9.34,19.09-20.24,19.22-20.35l.25-.21,.29,.15c13.85,7.06,19.18,17.31,21.13,22.8,3.36,9.47,7.24,17.62,11.86,24.92l.12,.19c10.32,22.71,61.36,98.32,61.87,99.08l.22,.33-.27,.29c-10.19,10.87-25.21,11-25.37,11Zm-97.76-124.97c3.03,.2,11.77,2.01,15.53,15.93,1.34,4.98,2.69,8.99,4.24,12.62,4.41,10.32,14.25,29.74,30.7,43.91l47.51,51.5c1.83-.06,14.93-.81,24.15-10.39-3.72-5.52-51.73-76.88-61.7-98.83l-.09-.13c-4.66-7.36-8.57-15.57-11.96-25.12-1.88-5.3-7.02-15.19-20.35-22.09-1.86,1.55-13.51,11.4-18.75,19.89-1.4,2.28-2.93,4.5-4.57,6.62l-4.71,6.09Z" fill="#002346"></path>
  </g>
  <g>
    <path d="M380.95,386.85c-1.11,2.17-7.54,1.32-7.54,1.32-30.64,4-56,33.72-56,33.72-5.59,8.17-11.7,15.96-18.31,23.33h0c-43.46,48.06-76,33.18-76.37,33h0c-.66-28.49-12.65-61.18-19.59-77.82-4.97-11.85-8.31-24.31-9.94-37.05-2.88-22.9,1.06-31.49,1.06-31.49l54.15-11.14,34.64-11.18c-1.85,25.07,46.11,46.73,46.11,46.73,13.68,6.43,40.15,20.55,46.95,24.19,1.43,.74,2.7,1.76,3.73,3,1.26,1.61,1.48,2.67,1.11,3.39Z" fill="#B8D9CD"></path>
    <path d="M236.23,481.04c-8.61,0-13.6-2.3-13.73-2.36l-.27-.13v-.3c-.66-28.34-12.54-60.81-19.56-77.64-4.98-11.88-8.34-24.39-9.97-37.18-2.86-22.78,.94-31.41,1.1-31.76l.11-.23,.25-.05,54.15-11.14,35.29-11.39-.05,.74c-1.8,24.43,45.34,46.02,45.82,46.24,13.39,6.3,39.35,20.12,46.98,24.2,1.49,.77,2.8,1.83,3.88,3.12,1.3,1.66,1.68,2.95,1.17,3.94h0c-1.2,2.35-7.03,1.72-7.99,1.6-30.07,3.96-55.37,33.24-55.62,33.54-5.54,8.11-11.72,15.98-18.32,23.34-26.85,29.69-49.59,35.48-63.23,35.48Zm-13.02-3.15c3.23,1.33,34.44,12.41,75.51-33,6.57-7.33,12.72-15.16,18.27-23.28,.29-.34,25.87-29.96,56.35-33.93h.06s.07,0,.07,0c2.35,.31,6.34,.3,7.03-1.05h0c.38-.75-.36-1.97-1.06-2.85-.99-1.18-2.19-2.15-3.57-2.86-7.63-4.09-33.57-17.9-46.93-24.18-1.95-.88-47.35-21.68-46.44-46.48l-33.95,10.96-53.94,11.1c-.57,1.5-3.5,10.54-.93,30.99,1.62,12.7,4.96,25.12,9.91,36.92,7.02,16.84,18.88,49.26,19.62,77.68Z" fill="#002346"></path>
  </g>
  <g>
    <path d="M314.31,249.54l6.5,7.43s37.13-5.26,65.9-16.09l15.68-14.82s11.39-13.32,18.9-14.52c.78-.11,1.5,.42,1.63,1.2h0c.1,.53-.11,1.07-.53,1.4-2.39,1.88-10.27,8.25-12,11.88l1.39,1.52s9.11-9.11,17.07-10.86c.95-.2,1.87,.41,2.07,1.35,.02,.12,.04,.24,.04,.36h0c0,.62-.32,1.19-.85,1.5-2.86,1.71-12.1,7.43-13.81,10.91-.14,.26-.14,.57,0,.83h0c.22,.46,.77,.65,1.23,.43,.02,0,.03-.02,.05-.03l14.48-7.9c.95-.52,2.15-.22,2.74,.69h0c.63,.96,.36,2.25-.6,2.88-.07,.04-.14,.08-.21,.12l-11.38,5.76c-.5,.24-.7,.84-.46,1.34,.04,.08,.09,.16,.16,.23h0c.25,.27,.64,.38,1,.28l6.48-1.64c.83-.21,1.67,.26,1.93,1.07h0c.24,.85-.25,1.75-1.11,1.99-.01,0-.02,0-.03,0-3.78,1-12.89,3.66-15.62,8-.36,.58-.76,1.14-1.18,1.68-2.64,3.2-11.29,12.56-22.07,12.56,0,0-68.07,37.75-82.61,22.58l-14.75-12.14s13.61-1,19.96-20Z" fill="#f2b3c1"></path>
    <path d="M320.38,285.78c-5.02,0-9.1-1.1-11.64-3.75l-15.67-12.89,1.24-.09c.13-.01,13.36-1.23,19.52-19.66l.28-.83,6.9,7.88c3.41-.5,38.33-5.81,65.43-15.99l15.61-14.75c.43-.51,11.56-13.44,19.16-14.65,1.08-.15,2.03,.56,2.2,1.61,.13,.71-.15,1.43-.71,1.88-2.29,1.8-9.75,7.83-11.71,11.41l.81,.88c1.82-1.75,9.75-9.05,16.94-10.63,.59-.12,1.19-.01,1.7,.32,.5,.33,.85,.83,.97,1.42,.03,.15,.05,.3,.05,.46,0,.79-.42,1.53-1.09,1.93-5.72,3.42-12.3,8.03-13.62,10.7-.07,.13-.07,.26,0,.38,.06,.11,.14,.19,.25,.23,.1,.04,.22,.03,.32-.02l14.51-7.92c1.17-.64,2.67-.27,3.4,.86,.78,1.19,.44,2.79-.75,3.57-.08,.05-.17,.1-.26,.15l-11.38,5.76c-.12,.06-.21,.16-.26,.29s-.04,.26,.02,.38c.02,.04,.05,.08,.08,.11,.12,.13,.32,.19,.5,.14l6.49-1.64c1.08-.27,2.19,.34,2.53,1.4,.32,1.13-.33,2.3-1.44,2.62-8.23,2.18-13.53,4.87-15.37,7.79-.37,.59-.78,1.17-1.21,1.72-2.46,2.99-11.31,12.67-22.33,12.75-3.38,1.87-47.84,26.18-71.46,26.18Zm-24.87-15.92l13.9,11.44c14.15,14.76,81.37-22.25,82.05-22.63l.11-.06h.13c10.65,0,19.29-9.47,21.68-12.38,.41-.51,.79-1.06,1.14-1.63,2.5-3.97,10.04-6.66,15.92-8.22,.61-.17,.96-.79,.79-1.38-.17-.54-.76-.87-1.33-.72l-6.48,1.64c-.53,.15-1.1-.01-1.49-.42-.1-.11-.18-.23-.24-.35-.36-.74-.06-1.64,.69-2.01l11.37-5.76c.06-.03,.11-.06,.16-.09,.73-.48,.93-1.46,.46-2.19-.45-.69-1.36-.92-2.08-.53l-14.48,7.9c-.42,.2-.8,.22-1.16,.1-.36-.12-.65-.38-.81-.72-.2-.39-.2-.87,0-1.28,1.72-3.5,10.36-8.93,14-11.11,.38-.22,.61-.63,.61-1.07,0-.08,0-.17-.03-.26-.07-.33-.26-.61-.54-.79-.28-.18-.61-.25-.94-.18-7.72,1.7-16.73,10.63-16.82,10.72l-.37,.37-1.97-2.15,.15-.3c1.73-3.62,9.07-9.64,12.14-12.06,.28-.22,.41-.57,.35-.92-.09-.52-.56-.86-1.07-.79-7.23,1.16-18.47,14.22-18.59,14.35l-15.88,14.96c-28.49,10.73-65.63,16.06-66.01,16.12l-.27,.04-6.11-6.98c-5.39,15.19-15.59,18.61-18.99,19.33Z" fill="#002346"></path>
  </g>
  <g>
    <path d="M275.78,198.93s7.61-2.61,16.59,19.67l22,30.94s-3.72,16.46-20,20l-7-17.11,.7-9.37-12.29-44.13Z" fill="#fff"></path>
    <path d="M294.06,270.12l-7.2-17.61,.7-9.4-12.39-44.5,.45-.15c.33-.11,8.15-2.51,17.19,19.9l22.1,31.07-.05,.22c-.04,.17-3.98,16.81-20.38,20.38l-.41,.09Zm-6.19-17.77l6.79,16.61c14.46-3.39,18.65-17.42,19.16-19.32l-21.92-30.85c-7.43-18.43-13.74-19.52-15.49-19.45l12.16,43.68v.09s-.7,9.25-.7,9.25Z" fill="#002346"></path>
  </g>
  <g>
    <path d="M403.9,241.21c1.49-5.14,5.24-9.32,10.18-11.36,.77-.31,1.56-.55,2.36-.74,.77-.18,1.32-.87,1.32-1.66h0c0-.82-.59-1.53-1.4-1.68-3.36-.61-12-1.6-16.91,3l-12.74,12.11" fill="#f2b3c1"></path>
    <path d="M403.9,241.71s-.09,0-.14-.02c-.27-.08-.42-.35-.34-.62,1.54-5.31,5.36-9.57,10.47-11.68,.79-.32,1.61-.57,2.44-.76,.55-.13,.93-.61,.93-1.17,0-.58-.42-1.08-.99-1.19-3.37-.61-11.74-1.56-16.48,2.87l-12.74,12.11c-.2,.19-.52,.18-.71-.02-.19-.2-.18-.52,.02-.71l12.74-12.11c5.07-4.75,13.82-3.77,17.34-3.13,1.05,.19,1.81,1.11,1.81,2.17,0,1.03-.71,1.91-1.71,2.15-.78,.18-1.55,.42-2.29,.72-4.83,1.99-8.43,6.01-9.88,11.03-.06,.22-.26,.36-.48,.36Z" fill="#002346"></path>
  </g>
  <g>
    <path d="M210.03,190.75l-18.56,10.1s-10.06,4.6-5,25.21c0,0-2.3,10.42,6.62,34.13,3.51,9.37,5.21,19.33,5,29.34-.31,14.18-1.61,28.32-3.89,42.32,0,0,74.58,19.8,88.85-22.31l5-66.52s-7.84-36.48-12.27-44.09c0,0-22.08-7.19-27.65-9.85l-38.1,1.67Z" fill="#02733E"></path>
    <path d="M231.42,337c-19.54,0-37.17-4.62-37.35-4.67l-.44-.12,.07-.45c2.27-13.93,3.57-28.14,3.88-42.25,.21-9.99-1.46-19.8-4.97-29.15-8.47-22.52-6.9-33.02-6.66-34.29-5.04-20.68,4.88-25.48,5.3-25.68l18.63-10.14h.12s38.22-1.68,38.22-1.68l.11,.05c5.48,2.62,27.37,9.75,27.59,9.83l.18,.06,.1,.17c4.42,7.59,12.01,42.74,12.33,44.24v.07s0,.07,0,.07l-5,66.58-.02,.06c-5.91,17.44-23.28,26.87-50.24,27.29-.62,0-1.24,.01-1.86,.01Zm-36.65-5.52c6.16,1.53,74.35,17.4,87.79-22.04l4.99-66.38c-.39-1.79-7.84-36.07-12.11-43.71-2.27-.74-21.92-7.18-27.41-9.76l-37.86,1.66-18.46,10.04c-.13,.06-9.64,4.75-4.75,24.65l.03,.11-.02,.11c-.02,.1-2.14,10.6,6.6,33.85,3.55,9.48,5.24,19.41,5.03,29.53-.31,14-1.59,28.11-3.82,41.94Z" fill="#002346"></path>
  </g>
  <g>
    <path d="M724.92,455.22v119.63c0,4.56-3.7,8.26-8.26,8.26h-165.42c-4.56,0-8.26-3.69-8.27-8.25h0v-119.64c0-3.17,1.81-6.06,4.66-7.44,1.13-.54,2.36-.82,3.61-.82h165.42c4.56,0,8.26,3.7,8.26,8.26h0Z" fill="#B8D9CD"></path>
    <path d="M551.22,583.61c-2.33,0-4.53-.91-6.18-2.56-1.66-1.65-2.57-3.85-2.57-6.19v-119.64c0-3.34,1.94-6.43,4.94-7.89,1.19-.57,2.51-.87,3.83-.87h165.42c4.83,0,8.76,3.93,8.76,8.76v119.63c0,4.83-3.93,8.76-8.76,8.76h-165.43Zm.01-136.15c-1.17,0-2.34,.27-3.39,.77-2.66,1.29-4.38,4.03-4.38,6.99v119.63c0,2.08,.81,4.03,2.28,5.49,1.46,1.46,3.41,2.27,5.48,2.27h165.43c4.28,0,7.76-3.48,7.76-7.76v-119.63c0-4.28-3.48-7.76-7.76-7.76h-165.42Z" fill="#002346"></path>
  </g>
  <g>
    <path d="M649.37,509.39c11.07-6.47,14.8-20.68,8.33-31.75-6.47-11.07-20.68-14.8-31.75-8.33-11.07,6.47-14.8,20.68-8.33,31.75,1.76,3.02,4.19,5.6,7.09,7.55l-10.68,45.6c-1.41,6.16,2.43,12.3,8.59,13.71,.84,.19,1.69,.29,2.55,.29h21.8c6.32,0,11.44-5.12,11.44-11.44,0-.74-.07-1.47-.21-2.19l-8.83-45.19Z" fill="#fff"></path>
    <path d="M646.97,568.71h-21.8c-.89,0-1.79-.1-2.66-.3-6.42-1.47-10.44-7.89-8.97-14.31l10.6-45.27c-2.82-1.96-5.22-4.55-6.96-7.52-3.2-5.47-4.07-11.85-2.46-17.98,1.61-6.13,5.5-11.26,10.97-14.45,5.47-3.2,11.85-4.07,17.98-2.46,6.13,1.61,11.26,5.5,14.45,10.97,3.2,5.47,4.07,11.85,2.46,17.98-1.58,6.01-5.36,11.07-10.67,14.27l8.76,44.84c.15,.75,.22,1.52,.22,2.29,0,3.19-1.24,6.19-3.5,8.44s-5.25,3.5-8.44,3.5Zm-9.35-102.08c-3.97,0-7.89,1.05-11.42,3.11-5.24,3.06-8.97,7.98-10.51,13.84-1.54,5.87-.7,11.98,2.36,17.22,1.72,2.94,4.11,5.49,6.94,7.39l.29,.19-.08,.34-10.68,45.6c-1.35,5.88,2.33,11.76,8.21,13.11,.8,.18,1.62,.28,2.44,.28h21.8c2.92,0,5.67-1.14,7.73-3.2,2.07-2.07,3.21-4.81,3.21-7.74,0-.7-.07-1.41-.2-2.1l-8.9-45.54,.31-.18c5.24-3.06,8.97-7.98,10.51-13.84,1.54-5.87,.7-11.98-2.36-17.22-3.06-5.24-7.98-8.97-13.84-10.51-1.92-.5-3.87-.75-5.8-.75Z" fill="#002346"></path>
  </g>
  <g>
    <path d="M716.03,446.96h-164.79c-1.25,0-2.48,.28-3.61,.82l23.81-17.53h127.18l17.41,16.71Z" fill="#002346"></path>
    <path d="M547.84,448.23l-.51-.85,23.94-17.63h127.54l18.45,17.71h-166.03c-1.17,0-2.34,.27-3.39,.77Zm23.76-17.48l-21.42,15.77c.35-.04,.71-.06,1.06-.06h163.55l-16.37-15.71h-126.81Z" fill="#002346"></path>
  </g>
  <g>
    <path d="M574.32,441.7h13.35c4.15,0,7.52-3.37,7.52-7.52h0v-13c0-22.64,18.36-41,41-41h0c22.64,0,41,18.36,41,41h0v12c0,4.7,3.81,8.51,8.51,8.51h9.66c4.7,0,8.51-3.81,8.51-8.51h0v-13.26c.03-37.17-30.08-67.34-67.25-67.38h-1.2c-37.9-.01-68.63,30.7-68.64,68.6v13.06c.01,4.15,3.39,7.51,7.54,7.5h0Z" fill="#B8D9CD"></path>
    <path d="M574.3,442.2c-4.41,0-8.01-3.58-8.02-8v-13c.01-38.17,31.02-69.16,69.12-69.16h1.22c37.39,.04,67.78,30.5,67.75,67.88v13.26c0,4.97-4.04,9.01-9.01,9.01h-9.66c-4.97,0-9.01-4.04-9.01-9.01v-12c0-22.33-18.17-40.5-40.5-40.5s-40.5,18.17-40.5,40.5v13c0,4.42-3.6,8.02-8.02,8.02h-13.37Zm61.1-89.16c-37.55,0-68.11,30.54-68.12,68.1v13.06c.01,3.86,3.16,7,7.02,7h13.37c3.87,0,7.02-3.15,7.02-7.02v-13c0-22.88,18.62-41.5,41.5-41.5s41.5,18.62,41.5,41.5v12c0,4.42,3.59,8.01,8.01,8.01h9.66c4.42,0,8.01-3.59,8.01-8.01v-13.26c.03-36.83-29.92-66.84-66.75-66.88h-1.22Z" fill="#002346"></path>
  </g>
  <g>
    <path d="M230.87,212.88c-2.92-2.12-11.19-8.75-20.87-22.12,0,0-1.11-2.61,3-4.4l4.89-2.38s1-.59,1.66,0c0,0,7.16,9.57,17.68,13.59,.03-.02-7.68,7.71-5.69,14.83,.11,.4-.32,.73-.66,.49Z" fill="#fff"></path>
    <path d="M231.12,213.46c-.19,0-.38-.06-.55-.18-3.09-2.25-11.33-8.9-20.99-22.23l-.05-.1s-1.25-3.09,3.26-5.05l4.87-2.37c.45-.27,1.48-.58,2.21,.08,.14,.17,7.27,9.58,17.53,13.5l.12,.05,.37,.44-.33,.35c-.76,.79-7.35,7.9-5.55,14.32,.11,.4-.03,.81-.37,1.04-.16,.11-.34,.17-.52,.17Zm.04-.99l-.29,.4,.29-.4h0Zm-20.72-21.96c9.44,13.02,17.48,19.59,20.61,21.88-1.68-6.11,3.56-12.66,5.31-14.63-10.17-4.17-17.15-13.39-17.22-13.49-.31-.26-1,.13-1.01,.13l-4.92,2.4c-3.35,1.46-2.88,3.4-2.77,3.71Z" fill="#002346"></path>
  </g>
  <g>
    <path d="M237.45,197.57m9.71,11.37-9.71-11.45c.92-.4,5.08-2.71,4.94-11.31,1.57,.35,3.17,.53,4.78,.55,0,0,4.12,6.96,.28,21.18-.07,.28-.47,.29-.55,.01-.43-1.46-1.25-3.49-2.85-5.51-2.38-2.99-5.21-4.36-6.59-4.93Z" fill="#fff"></path>
    <path d="M247.16,208.63c-.35,0-.65-.22-.75-.56-.58-1.96-1.51-3.75-2.77-5.34-2.11-2.66-4.64-4.06-6.39-4.77l-1.1-.45,1.09-.47c.8-.35,4.78-2.5,4.64-10.84v-.63s.61,.14,.61,.14c1.53,.34,3.11,.52,4.68,.54h.28s.14,.25,.14,.25c.17,.29,4.18,7.3,.33,21.57-.09,.34-.39,.58-.75,.58h0Zm-8.61-11.19c1.76,.84,3.98,2.28,5.88,4.67,1.19,1.49,2.1,3.16,2.72,4.97,3.05-11.94,.34-18.54-.29-19.85-1.33-.03-2.66-.18-3.97-.43-.05,6.73-2.78,9.56-4.34,10.64Z" fill="#002346"></path>
  </g>
  <g>
    <polygon points="244.69 218.29 245.76 306.76 294.35 295.03 295.03 211.57 244.69 218.29" fill="#e6e7e8"></polygon>
    <path d="M245.26,307.4l-1.08-89.54,51.35-6.85-.69,84.43-49.58,11.97Zm-.07-88.67l1.06,87.4,47.6-11.49,.67-82.49-49.33,6.58Z" fill="#002346"></path>
  </g>
  <g>
    <path d="M401.88,561.14s1.54,19.8,9.9,31.87l72.71-28.47s-2.78-16.71-21.66-12.69c0,0-23.82,3.72-35.89-1.23,0,0-8.05,9.92-25.06,10.52Z" fill="#02733E"></path>
    <path d="M411.59,593.62l-.23-.33c-8.34-12.04-9.97-31.92-9.99-32.12l-.04-.52,.52-.02c16.56-.58,24.61-10.24,24.69-10.34l.23-.29,.34,.14c11.8,4.84,35.39,1.24,35.62,1.2,6.11-1.3,11.23-.59,15.19,2.11,5.81,3.96,6.99,10.71,7.04,11l.07,.4-.38,.15-73.08,28.61Zm-9.17-32c.31,3.16,2.29,20.02,9.54,30.78l71.95-28.17c-.34-1.48-1.86-6.76-6.54-9.95-3.73-2.54-8.59-3.19-14.44-1.94-1,.16-23.7,3.62-35.85-1.12-1.48,1.62-9.57,9.69-24.66,10.4Z" fill="#002346"></path>
  </g>
  <g>
    <path d="M411.78,593.01l1.43,2.43c.96,1.63,2.96,2.31,4.71,1.62l65-25.9c1.9-.76,2.87-2.89,2.19-4.82l-.64-1.8-72.69,28.47Z" fill="#002346"></path>
    <path d="M416.49,597.84c-1.49,0-2.92-.78-3.72-2.14l-1.73-2.93,73.72-28.87,.81,2.29c.77,2.19-.32,4.59-2.47,5.45l-65,25.9c-.53,.21-1.07,.31-1.61,.31Zm-3.99-4.57l1.13,1.92c.84,1.42,2.56,2.02,4.1,1.41l65-25.9c1.66-.66,2.49-2.51,1.9-4.19l-.47-1.31-71.66,28.07Z" fill="#002346"></path>
  </g>
  <g>
    <path d="M240.83,194.33c-.76,1.44-1.99,2.58-3.48,3.23-9.29-3.09-17.88-13.46-17.88-13.46v-21.35l7.23-1.16,9.84,2.86,3.66,12.54,2,7c.7,5.05-.18,8.3-1.37,10.34Z" fill="#f2b3c1"></path>
    <path d="M237.37,198.1l-.18-.06c-9.32-3.1-17.75-13.19-18.11-13.62l-.12-.14v-21.96l7.76-1.25,10.21,2.97,5.74,19.81c.62,4.46,.14,8.05-1.41,10.72-.81,1.53-2.13,2.75-3.72,3.45l-.18,.08Zm-17.4-14.18c1.04,1.22,8.95,10.22,17.35,13.11,1.3-.62,2.39-1.65,3.06-2.93v-.02c1.46-2.48,1.9-5.85,1.32-10.02l-1.99-6.93-3.58-12.27-9.47-2.75-6.7,1.07v20.74Z" fill="#002346"></path>
  </g>
  <g>
    <path d="M223.4,148.98h6.43v15.47h-6.43c-3.79,0-6.87-3.08-6.87-6.87v-1.72c0-3.79,3.07-6.87,6.86-6.88h.01Z" fill="#f2b3c1"></path>
    <path d="M230.32,164.95h-6.93c-4.06,0-7.37-3.31-7.37-7.37v-1.72c0-4.06,3.3-7.37,7.36-7.38h6.94v16.47Zm-6.94-15.47c-3.51,0-6.37,2.87-6.36,6.38v1.72c0,3.51,2.86,6.37,6.37,6.37h5.93v-14.47h-5.94Z" fill="#002346"></path>
  </g>
  <g>
    <rect x="225.12" y="115.87" width="42.08" height="70.86" rx="21.04" ry="21.04" fill="#f2b3c1"></rect>
    <path d="M246.15,187.23c-11.88,0-21.54-9.66-21.54-21.54v-28.78c0-11.88,9.66-21.54,21.54-21.54s21.54,9.66,21.54,21.54v28.78c0,11.88-9.66,21.54-21.54,21.54Zm0-70.86c-11.33,0-20.54,9.21-20.54,20.54v28.78c0,11.33,9.21,20.54,20.54,20.54s20.54-9.21,20.54-20.54v-28.78c0-11.33-9.21-20.54-20.54-20.54Z" fill="#002346"></path>
  </g>
  <g>
    <path d="M148.33,283.11c-79.8-36.84-36.18-84.99-7.97-107.24,8.23-6.49,17.72-11.13,27.75-14.2,8.35-2.55,20.31-9.38,27.92-27.58,0,0,10.21-27.19,33.72-28.76,0,0,16.09-2.81,23.52,7.41,0,0,18.57,.61,20.42,16.71,.09,.09,1.28,10.18-6.15,17.33v-5.5c0-3.36-1.45-6.59-4.04-8.74-3.18-2.64-8.23-5.41-15.1-4.91,0,0-9.59-.31-12.69,6.19,0,0,4,21.17-12.53,36.57,1.92-4.31,2.92-8.97,2.94-13.68,0,0-1.58,2.71-6.28,6.35l-.37,21.04-6.47,2.25s-4.04,.88-3,4.4l-18.53,10.1-4.83,26.71s-2.51,11.31,6.95,34.01c0,0,4.49,11.7,4.47,23.7,0,0-28.43,7.66-49.72-2.17Z" fill="#002346"></path>
    <path d="M174.42,288.59c-8.46,0-17.95-1.17-26.3-5.03-28.13-12.99-43.46-28.6-45.56-46.39-3.02-25.57,22.19-49.63,37.49-61.7,7.89-6.23,17.28-11.03,27.91-14.28,8.47-2.59,20.13-9.43,27.61-27.29,.1-.26,10.59-27.49,34.15-29.07,.11-.02,16.23-2.7,23.82,7.42,2.24,.15,18.89,1.82,20.65,17.14h-.01c.12,.48,.14,1.39,.14,2.16-.03,2.85-.71,10.09-6.42,15.59l-.85,.81v-6.68c0-3.27-1.41-6.32-3.86-8.35-2.96-2.46-7.91-5.29-14.75-4.79-.14,0-9.21-.21-12.21,5.77,.33,2.05,3.05,22.18-12.71,36.86l-1.8,1.67,1-2.24c1.68-3.78,2.64-7.77,2.85-11.88-.92,1.14-2.57,2.91-5.24,5l-.37,21.15-6.8,2.36c-.07,.02-1.8,.41-2.52,1.64-.35,.6-.41,1.32-.16,2.15l.11,.39-18.67,10.18-4.79,26.48c-.03,.13-2.35,11.48,6.92,33.73,.05,.13,4.53,11.94,4.51,23.9v.38s-.37,.1-.37,.1c-.17,.05-10.74,2.83-23.77,2.83Zm-25.88-5.94c19.58,9.04,45.61,3.08,49.01,2.24-.08-11.63-4.39-23.02-4.44-23.13-9.4-22.57-7.07-33.83-6.97-34.3l4.87-26.93,18.4-10.03c-.2-.95-.08-1.8,.37-2.55,.95-1.6,3.02-2.06,3.11-2.08l6.08-2.12,.37-20.93,.19-.15c4.55-3.52,6.14-6.18,6.15-6.21l.94-1.6v1.85c-.03,4-.72,7.9-2.08,11.62,14.16-14.86,10.71-34.22,10.67-34.42l-.03-.16,.07-.15c3.2-6.72,12.75-6.49,13.16-6.47,7.1-.52,12.3,2.44,15.41,5.02,2.68,2.23,4.22,5.55,4.22,9.12v4.28c5.9-6.46,5.29-14.85,5.18-15.86h-.01s-.02-.18-.02-.18c-1.78-15.48-19.76-16.26-19.94-16.27h-.24s-.14-.21-.14-.21c-7.16-9.84-22.87-7.24-23.03-7.21-22.98,1.54-33.24,28.17-33.34,28.44-7.63,18.24-19.57,25.23-28.24,27.88-10.51,3.21-19.79,7.96-27.58,14.11-15.13,11.94-40.08,35.71-37.12,60.8,2.06,17.42,17.2,32.76,44.99,45.59Z" fill="#002346"></path>
  </g>
  <g>
    <path d="M206.94,280.18s10.84,29.73,26.3,26.36c0,0,17.32-3.42,48-20.12l18.43-8.66s6.94-4,6-17c0,0-6.19-25.28-11.29-14.8,0,0,.15,14.49-12.84,18.83l-43.91,13c-.27,.08-.55,.11-.83,.06-1.12-.17-3.82-1.05-4.37-5.4l-25.49,7.73Z" fill="#f2b3c1"></path>
    <path d="M230.75,307.31c-14.28,0-23.86-25.8-24.28-26.96l-.18-.5,26.56-8.06,.07,.59c.51,4.02,2.93,4.81,3.95,4.97,.21,.03,.41,.02,.6-.04l43.92-13c12.47-4.17,12.48-18.2,12.48-18.35v-.12s.05-.11,.05-.11c.97-2,2.1-2.95,3.37-2.81,4.51,.48,8.43,15.95,8.86,17.71,.96,13.24-5.94,17.38-6.24,17.55l-18.47,8.68c-30.37,16.53-47.94,20.12-48.12,20.16-.88,.19-1.74,.28-2.58,.28Zm-23.15-26.81c1.5,3.84,11.77,28.54,25.53,25.55,.18-.04,17.63-3.61,47.87-20.07l18.46-8.67s6.62-4.02,5.71-16.51c-1.11-4.52-4.75-16.53-7.98-16.87-.79-.08-1.56,.64-2.31,2.16-.03,1.45-.65,15-13.18,19.19l-43.93,13.01c-.33,.1-.7,.13-1.05,.07-.92-.14-3.91-.93-4.7-5.25l-24.42,7.41Z" fill="#002346"></path>
  </g>
  <g>
    <path d="M186.49,226.06s.81,12.85,9.55,36.73l7.8,19.86s21.35,4,29.4-11.76l-16.71-46.08s-3.12-15.57-14.58-19.92c-6.34-2.37-13.41,.84-15.78,7.19-.56,1.5-.82,3.1-.77,4.7,.11,3.12,.48,6.22,1.09,9.28Z" fill="#fff"></path>
    <path d="M209.63,283.58c-3.45,0-5.82-.42-5.89-.44l-.27-.05-7.9-20.12c-8.45-23.08-9.52-36.07-9.58-36.85-.61-3.07-.98-6.21-1.09-9.33-.06-1.68,.21-3.32,.8-4.9,1.2-3.19,3.56-5.73,6.66-7.14,3.1-1.41,6.57-1.53,9.76-.34,11.59,4.4,14.77,19.64,14.9,20.29l16.76,46.21-.1,.19c-5.46,10.69-17,12.46-24.05,12.46Zm-5.44-1.38c2.47,.38,21.12,2.73,28.49-11.35l-16.63-45.87c-.05-.23-3.22-15.42-14.29-19.62-2.94-1.1-6.13-.99-8.99,.31-2.86,1.3-5.04,3.64-6.14,6.58-.54,1.45-.79,2.97-.74,4.51,.11,3.07,.47,6.17,1.08,9.2v.07c.02,.13,.92,13.07,9.53,36.59l7.69,19.58Z" fill="#002346"></path>
  </g>
  <g>
    <path d="M643.78,509.39c11.07-6.47,14.8-20.68,8.33-31.75-6.47-11.07-20.68-14.8-31.75-8.33-11.07,6.47-14.8,20.68-8.33,31.75,1.76,3.02,4.19,5.6,7.09,7.55l-10.68,45.6c-1.41,6.16,2.43,12.3,8.59,13.71,.84,.19,1.69,.29,2.55,.29h21.8c6.32,0,11.44-5.12,11.44-11.44,0-.74-.07-1.47-.21-2.19l-8.83-45.19Z" fill="#B8D9CD"></path>
    <path d="M641.38,568.71h-21.8c-.89,0-1.79-.1-2.66-.3-3.11-.71-5.75-2.6-7.45-5.3s-2.23-5.9-1.52-9.01l10.6-45.27c-2.82-1.96-5.22-4.55-6.96-7.52-6.59-11.29-2.78-25.84,8.51-32.43,5.47-3.2,11.85-4.07,17.98-2.46,6.13,1.61,11.26,5.5,14.45,10.97,3.2,5.47,4.07,11.85,2.46,17.98-1.58,6.01-5.36,11.07-10.67,14.27l8.76,44.84c.15,.75,.22,1.52,.22,2.29,0,3.19-1.24,6.19-3.5,8.44-2.25,2.25-5.25,3.5-8.44,3.5Zm-9.35-102.08c-3.98,0-7.9,1.05-11.42,3.11-10.81,6.32-14.47,20.25-8.15,31.06,1.72,2.94,4.12,5.49,6.94,7.39l.29,.19-.08,.34-10.68,45.6c-.65,2.85-.16,5.78,1.39,8.25,1.55,2.48,3.97,4.2,6.82,4.85,.8,.18,1.62,.28,2.44,.28h21.8c2.92,0,5.67-1.14,7.73-3.2,2.07-2.07,3.21-4.81,3.21-7.74,0-.7-.07-1.41-.2-2.1l-8.9-45.54,.31-.18c5.24-3.06,8.97-7.98,10.51-13.84,1.54-5.87,.7-11.98-2.36-17.22-3.06-5.24-7.98-8.97-13.84-10.51-1.92-.5-3.87-.75-5.8-.75Z" fill="#002346"></path>
  </g>
  <path d="M302.04,389.92c-.2,0-.39-.12-.47-.32-11.81-31.48-44.88-54.62-45.21-54.85-.23-.16-.28-.47-.13-.7,.16-.23,.47-.28,.7-.13,.33,.23,33.66,23.54,45.58,55.32,.1,.26-.03,.55-.29,.64-.06,.02-.12,.03-.18,.03Z" fill="#002346"></path>
  <g>
    <g>
      <path d="M158.21,531.19s17.69-14.87,37.76-.4c0,0,12.61,9.81,4.2,18.21,0,0-8.87,6.07-21.94-4.2,0,0-13.89-11.34-20.02-13.61Z" fill="#7cd295"></path>
      <path d="M193.08,551.22c-3.89,0-9.09-1.3-15.14-6.04-.15-.12-13.91-11.32-19.89-13.54l-.76-.28,.62-.52c.18-.15,18.2-14.94,38.34-.42,.29,.23,6.88,5.42,7.27,11.64,.17,2.67-.85,5.12-3.01,7.29-.09,.06-2.83,1.88-7.43,1.88Zm-33.93-20.15c6.42,2.82,18.83,12.92,19.38,13.37,12.65,9.94,21.3,4.24,21.38,4.18,1.9-1.91,2.82-4.11,2.67-6.5-.36-5.79-6.83-10.9-6.89-10.95-17.42-12.56-33.21-2.51-36.53-.1Z" fill="#002346"></path>
    </g>
    <g>
      <path d="M138.66,523.92s19.49-27.21,7.82-53.83c0,0-13.07-26.15,2.33-34.08,0,0,19.14-7.94,29.42,20.08,0,0,13.77,40.89-39.57,67.83Z" fill="#7cd295"></path>
      <path d="M137.16,525.21l1.12-1.56c.19-.27,19.2-27.31,7.77-53.36-.12-.24-13.09-26.63,2.55-34.69,.31-.13,6.78-2.74,14.31,.56,6.73,2.95,12.03,9.6,15.76,19.77,.04,.12,3.45,10.52,.23,24.08-2.97,12.5-12.32,30.33-40.04,44.33l-1.71,.86Zm17.85-89.76c-3.55,0-5.98,.98-6.02,1-14.78,7.62-2.22,33.18-2.09,33.44,10.09,23.01-3.04,46.69-6.87,52.8,26.14-13.69,35.07-30.8,37.95-42.84,3.17-13.31-.16-23.5-.19-23.6-3.63-9.91-8.76-16.38-15.25-19.22-2.73-1.2-5.34-1.57-7.52-1.57Z" fill="#002346"></path>
    </g>
    <g>
      <path d="M89.1,445.49c-4.84,2.39-8.02,7.3-7.94,12.69,.1,6.74,4.23,16.02,23.77,21.25,0,0,22.91,5.68,25.46,22.68,0,0,6.32-21.07-4.46-41.2-4.13-7.71-11-13.67-19.37-16.21-5.26-1.59-11.53-2.14-17.46,.78Z" fill="#7cd295"></path>
      <path d="M130.24,504.27l-.31-2.08c-2.48-16.49-24.88-22.24-25.11-22.29-19.75-5.29-24.02-14.72-24.12-21.7-.08-5.47,3.14-10.62,8.2-13.12h0c5.18-2.55,11.17-2.83,17.8-.81,8.35,2.53,15.33,8.37,19.65,16.44,10.75,20.07,4.56,41.34,4.49,41.56l-.6,2.02Zm-31.91-60.4c-3.23,0-6.25,.68-9.01,2.04h0c-4.74,2.34-7.75,7.15-7.68,12.26,.1,6.66,4.24,15.67,23.42,20.8,.21,.05,21.35,5.47,25.38,20.98,1.23-5.73,3.73-22.68-4.91-38.82-4.2-7.85-10.98-13.52-19.09-15.98-2.83-.86-5.54-1.29-8.1-1.29Z" fill="#002346"></path>
    </g>
    <g>
      <path d="M88.02,515.5c1.18,2.24,3.35,4.73,7.11,7.36,0,0,14.75,8.55,18.58,20.62,0,0-.37-19.68-11.57-34.62,0,0-.97-1.84-2.97-3.28-6.6-4.75-14.92,2.72-11.14,9.92Z" fill="#7cd295"></path>
      <path d="M114.23,546.7l-.98-3.09c-3.73-11.75-18.22-20.27-18.37-20.35-3.5-2.45-5.94-4.98-7.29-7.55h0c-2.11-4.02-.58-7.97,1.87-10.1,2.91-2.52,6.82-2.69,9.96-.43,2.06,1.49,3.07,3.36,3.11,3.44,11.13,14.83,11.63,34.64,11.63,34.83l.06,3.24Zm-19.49-42.15c-1.86,0-3.52,.79-4.66,1.78-2.01,1.75-3.65,5.14-1.65,8.95h0c1.28,2.44,3.62,4.86,6.96,7.19,.53,.3,12.67,7.44,17.62,17.98-.6-6.08-2.87-20.12-11.27-31.32-.05-.08-.99-1.83-2.87-3.18-1.4-1.01-2.82-1.41-4.13-1.41Z" fill="#002346"></path>
    </g>
    <g>
      <polygon points="105.86 562.09 108.34 610.88 149.75 610.88 152.55 562.55 105.86 562.09" fill="#fff"></polygon>
      <path d="M149.75,611.35h-41.41c-.25,0-.46-.2-.47-.45l-2.48-48.79c0-.13,.04-.26,.13-.35,.09-.09,.2-.15,.34-.14l46.69,.46c.13,0,.25,.06,.34,.15,.09,.09,.13,.22,.13,.35l-2.8,48.33c-.01,.25-.22,.44-.47,.44Zm-40.96-.94h40.52l2.75-47.39-45.7-.45,2.43,47.84Z" fill="#002346"></path>
    </g>
    <path d="M138.08,562.32s-.02,0-.04,0c-.26-.02-.45-.25-.43-.51,.01-.19,1.62-19.46,14.86-28.43,7.85-5.31,18.13-6.02,30.57-2.11,.25,.08,.39,.34,.31,.59s-.34,.39-.59,.31c-12.15-3.82-22.16-3.15-29.75,1.99-12.87,8.71-14.44,27.53-14.46,27.72-.02,.25-.23,.44-.47,.44Z" fill="#002346"></path>
    <path d="M130.89,562c-.21,0-.39-.14-.45-.34-7.34-26.23,10.43-41.43,14.06-44.21,1.08-.83,2.36-1.82,3.58-2.87,32.26-27.76,13.6-58.85,13.41-59.16-.14-.22-.07-.51,.15-.65,.22-.14,.51-.07,.65,.15,.2,.32,19.29,32.07-13.59,60.37-1.24,1.07-2.53,2.07-3.62,2.91-3.55,2.72-20.9,17.57-13.73,43.21,.07,.25-.08,.51-.33,.58-.04,.01-.09,.02-.13,.02Z" fill="#002346"></path>
    <path d="M127.53,562.34c-.16,0-.31-.08-.4-.22-11.41-18.39-2.9-41.81-.02-48.56,.72-1.7,1.24-3.12,1.61-4.46,8.01-28.86-16.34-46.38-16.59-46.55-.21-.15-.26-.44-.11-.66,.15-.21,.44-.26,.66-.11,.25,.18,25.15,18.06,16.96,47.57-.39,1.39-.91,2.84-1.65,4.58-2.83,6.64-11.22,29.69-.04,47.69,.14,.22,.07,.51-.15,.65-.08,.05-.16,.07-.25,.07Z" fill="#002346"></path>
    <path d="M115.53,562.05s-.01,0-.02,0c-.26-.01-.46-.23-.45-.49,1.24-30.66-16.74-42.86-16.93-42.98-.22-.14-.28-.43-.13-.65,.14-.22,.43-.28,.65-.14,.19,.12,18.61,12.58,17.35,43.8-.01,.25-.22,.45-.47,.45Z" fill="#002346"></path>
  </g>
</svg>
