<svg xmlns="http://www.w3.org/2000/svg" version="1.1" xmlns:xlink="http://www.w3.org/1999/xlink" width="1500" height="681" viewBox="0 0 1500 681"><g transform="matrix(1,0,0,1,-0.9090909090911055,0.9271547547683099)"><svg viewBox="0 0 396 180" data-background-color="#00784a" preserveAspectRatio="xMidYMid meet" height="681" width="1500" xmlns="http://www.w3.org/2000/svg" xmlns:xlink="http://www.w3.org/1999/xlink"><g id="tight-bounds" transform="matrix(1,0,0,1,0.24000000000003752,-0.24506293077575947)"><svg viewBox="0 0 395.5199999999999 180.49012586155152" height="180.49012586155152" width="395.5199999999999"><g><svg viewBox="0 0 395.5199999999999 180.49012586155152" height="180.49012586155152" width="395.5199999999999"><g transform="matrix(1,0,0,1,0,134.29355266885793)"><svg viewBox="0 0 395.5199999999999 46.196573192693585" height="46.196573192693585" width="395.5199999999999"><g id="textblocktransform"><svg viewBox="0 0 395.5199999999999 46.196573192693585" height="46.196573192693585" width="395.5199999999999" id="textblock"><g><svg viewBox="0 0 395.5199999999999 46.196573192693585" height="46.196573192693585" width="395.5199999999999"><g transform="matrix(1,0,0,1,0,0)"><svg width="395.5199999999999" viewBox="5.25 -35.4 388.67 45.4" height="46.196573192693585" data-palette-color="#fffafe"><path d="M43.5-35.4Q49.55-35.4 52.95-31.9 56.35-28.4 56.35-21.75L56.35-21.75 56.35 0 51.4 0 51.4-21.6Q51.4-26.2 49-28.58 46.6-30.95 42.65-30.95L42.65-30.95Q38.3-30.95 35.77-28.48 33.25-26 33.25-20.9L33.25-20.9 33.25 0 28.3 0 28.3-21.6Q28.3-26.25 26.03-28.6 23.75-30.95 19.8-30.95L19.8-30.95Q15.4-30.95 12.83-28.45 10.25-25.95 10.25-20.9L10.25-20.9 10.25 0 5.25 0 5.25-35 10.05-35 10.05-29.9Q11.6-32.5 14.43-33.95 17.25-35.4 21-35.4L21-35.4Q24.9-35.4 27.73-33.85 30.55-32.3 31.9-29.55L31.9-29.55Q33.55-32.35 36.58-33.88 39.6-35.4 43.5-35.4L43.5-35.4ZM77.25 0.3Q73.3 0.3 70.15-1.45 67-3.2 65.22-6.28 63.45-9.35 63.45-13.25L63.45-13.25Q63.45-17.15 65.22-20.23 67-23.3 70.15-25.03 73.3-26.75 77.25-26.75L77.25-26.75Q81.2-26.75 84.32-25.03 87.45-23.3 89.22-20.23 91-17.15 91-13.25L91-13.25Q91-9.35 89.22-6.28 87.45-3.2 84.32-1.45 81.2 0.3 77.25 0.3L77.25 0.3ZM77.25-3.9Q79.8-3.9 81.82-5.08 83.85-6.25 85-8.38 86.15-10.5 86.15-13.25L86.15-13.25Q86.15-16 85-18.13 83.85-20.25 81.82-21.4 79.8-22.55 77.25-22.55L77.25-22.55Q74.7-22.55 72.67-21.4 70.65-20.25 69.47-18.13 68.3-16 68.3-13.25L68.3-13.25Q68.3-10.5 69.47-8.38 70.65-6.25 72.67-5.08 74.7-3.9 77.25-3.9L77.25-3.9ZM111.8-26.75Q116.84-26.75 119.82-23.83 122.8-20.9 122.8-15.25L122.8-15.25 122.8 0 118 0 118-14.7Q118-18.55 116.14-20.5 114.3-22.45 110.84-22.45L110.84-22.45Q106.94-22.45 104.69-20.18 102.44-17.9 102.44-13.65L102.44-13.65 102.44 0 97.64 0 97.64-26.5 102.25-26.5 102.25-22.5Q103.69-24.55 106.17-25.65 108.64-26.75 111.8-26.75L111.8-26.75ZM143.79-3.9Q148.54-3.9 151.44-7.1L151.44-7.1 154.04-4Q152.29-1.9 149.62-0.8 146.94 0.3 143.64 0.3L143.64 0.3Q139.44 0.3 136.19-1.43 132.94-3.15 131.17-6.25 129.39-9.35 129.39-13.25L129.39-13.25Q129.39-17.1 131.12-20.2 132.84-23.3 135.87-25.03 138.89-26.75 142.69-26.75L142.69-26.75Q146.29-26.75 149.24-25.13 152.19-23.5 153.94-20.55 155.69-17.6 155.74-13.75L155.74-13.75 134.69-9.65Q135.69-6.9 138.07-5.4 140.44-3.9 143.79-3.9L143.79-3.9ZM142.69-22.7Q140.19-22.7 138.22-21.55 136.24-20.4 135.14-18.32 134.04-16.25 134.04-13.5L134.04-13.5 134.04-13 150.99-16.2Q150.34-19.1 148.09-20.9 145.84-22.7 142.69-22.7L142.69-22.7ZM182.34-26.5L187.14-26.5 187.14-3.6Q187.14 3.35 183.89 6.68 180.64 10 174.14 10L174.14 10Q170.59 10 167.37 8.97 164.14 7.95 162.09 6.05L162.09 6.05 164.44 2.35Q166.19 3.95 168.67 4.85 171.14 5.75 173.89 5.75L173.89 5.75Q178.24 5.75 180.29 3.58 182.34 1.4 182.34-3.1L182.34-3.1 182.34-5.05Q180.89-3.15 178.59-2.13 176.29-1.1 173.59-1.1L173.59-1.1Q168.29-1.1 165.24-4 162.19-6.9 162.19-12.6L162.19-12.6 162.19-26.5 166.99-26.5 166.99-13.15Q166.99-9.35 168.84-7.38 170.69-5.4 174.14-5.4L174.14-5.4Q177.94-5.4 180.14-7.7 182.34-10 182.34-14.2L182.34-14.2 182.34-26.5ZM248.69-35.4Q254.74-35.4 258.13-31.9 261.54-28.4 261.54-21.75L261.54-21.75 261.54 0 256.59 0 256.59-21.6Q256.59-26.2 254.19-28.58 251.78-30.95 247.84-30.95L247.84-30.95Q243.49-30.95 240.96-28.48 238.44-26 238.44-20.9L238.44-20.9 238.44 0 233.49 0 233.49-21.6Q233.49-26.25 231.21-28.6 228.94-30.95 224.99-30.95L224.99-30.95Q220.59-30.95 218.01-28.45 215.44-25.95 215.44-20.9L215.44-20.9 215.44 0 210.44 0 210.44-35 215.24-35 215.24-29.9Q216.78-32.5 219.61-33.95 222.44-35.4 226.19-35.4L226.19-35.4Q230.09-35.4 232.91-33.85 235.74-32.3 237.09-29.55L237.09-29.55Q238.74-32.35 241.76-33.88 244.78-35.4 248.69-35.4L248.69-35.4ZM291.28-26.5L296.08-26.5 296.08 0 291.48 0 291.48-4.2Q289.88-2 287.43-0.85 284.98 0.3 282.03 0.3L282.03 0.3Q278.18 0.3 275.13-1.4 272.08-3.1 270.36-6.18 268.63-9.25 268.63-13.25L268.63-13.25Q268.63-17.25 270.36-20.3 272.08-23.35 275.13-25.05 278.18-26.75 282.03-26.75L282.03-26.75Q284.88-26.75 287.28-25.68 289.68-24.6 291.28-22.5L291.28-22.5 291.28-26.5ZM282.43-3.9Q284.93-3.9 286.98-5.08 289.03-6.25 290.18-8.38 291.33-10.5 291.33-13.25L291.33-13.25Q291.33-16 290.18-18.13 289.03-20.25 286.98-21.4 284.93-22.55 282.43-22.55L282.43-22.55Q279.88-22.55 277.86-21.4 275.83-20.25 274.66-18.13 273.48-16 273.48-13.25L273.48-13.25Q273.48-10.5 274.66-8.38 275.83-6.25 277.86-5.08 279.88-3.9 282.43-3.9L282.43-3.9ZM312.78 0.3Q309.53 0.3 306.53-0.58 303.53-1.45 301.83-2.8L301.83-2.8 303.83-6.6Q305.58-5.35 308.08-4.6 310.58-3.85 313.13-3.85L313.13-3.85Q319.43-3.85 319.43-7.45L319.43-7.45Q319.43-8.65 318.58-9.35 317.73-10.05 316.46-10.38 315.18-10.7 312.83-11.1L312.83-11.1Q309.63-11.6 307.61-12.25 305.58-12.9 304.13-14.45 302.68-16 302.68-18.8L302.68-18.8Q302.68-22.4 305.68-24.58 308.68-26.75 313.73-26.75L313.73-26.75Q316.38-26.75 319.03-26.1 321.68-25.45 323.38-24.35L323.38-24.35 321.33-20.55Q318.08-22.65 313.68-22.65L313.68-22.65Q310.63-22.65 309.03-21.65 307.43-20.65 307.43-19L307.43-19Q307.43-17.7 308.33-16.95 309.23-16.2 310.56-15.85 311.88-15.5 314.28-15.05L314.28-15.05Q317.48-14.5 319.46-13.88 321.43-13.25 322.83-11.75 324.23-10.25 324.23-7.55L324.23-7.55Q324.23-3.95 321.16-1.83 318.08 0.3 312.78 0.3L312.78 0.3ZM342.68-5L344.18-1.55Q343.13-0.65 341.58-0.18 340.03 0.3 338.38 0.3L338.38 0.3Q334.38 0.3 332.18-1.85 329.98-4 329.98-8L329.98-8 329.98-32.3 334.78-32.3 334.78-26.5 342.38-26.5 342.38-22.55 334.78-22.55 334.78-8.2Q334.78-6.05 335.85-4.9 336.93-3.75 338.93-3.75L338.93-3.75Q341.13-3.75 342.68-5L342.68-5ZM361.03-3.9Q365.78-3.9 368.68-7.1L368.68-7.1 371.28-4Q369.53-1.9 366.85-0.8 364.18 0.3 360.88 0.3L360.88 0.3Q356.68 0.3 353.43-1.43 350.18-3.15 348.4-6.25 346.63-9.35 346.63-13.25L346.63-13.25Q346.63-17.1 348.35-20.2 350.08-23.3 353.1-25.03 356.13-26.75 359.93-26.75L359.93-26.75Q363.53-26.75 366.48-25.13 369.43-23.5 371.18-20.55 372.93-17.6 372.98-13.75L372.98-13.75 351.93-9.65Q352.93-6.9 355.3-5.4 357.68-3.9 361.03-3.9L361.03-3.9ZM359.93-22.7Q357.43-22.7 355.45-21.55 353.48-20.4 352.38-18.32 351.28-16.25 351.28-13.5L351.28-13.5 351.28-13 368.23-16.2Q367.58-19.1 365.33-20.9 363.08-22.7 359.93-22.7L359.93-22.7ZM384.27-22.05Q385.52-24.35 387.97-25.55 390.42-26.75 393.92-26.75L393.92-26.75 393.92-22.1Q393.52-22.15 392.82-22.15L392.82-22.15Q388.92-22.15 386.7-19.83 384.47-17.5 384.47-13.2L384.47-13.2 384.47 0 379.67 0 379.67-26.5 384.27-26.5 384.27-22.05Z" opacity="1" transform="matrix(1,0,0,1,0,0)" fill="#fffafe" class="wordmark-text-0" data-fill-palette-color="primary" id="text-0"></path></svg></g></svg></g></svg></g></svg></g><g transform="matrix(1,0,0,1,141.51912587860932,0)"><svg viewBox="0 0 112.48174824278126 112.48174824278126" height="112.48174824278126" width="112.48174824278126"><g><svg></svg></g><g id="icon-0"><svg viewBox="0 0 112.48174824278126 112.48174824278126" height="112.48174824278126" width="112.48174824278126"><g><path d="M0 56.241c0-31.061 25.18-56.241 56.241-56.241 31.061 0 56.241 25.18 56.241 56.241 0 31.061-25.18 56.241-56.241 56.241-31.061 0-56.241-25.18-56.241-56.241zM56.241 108.316c28.76 0 52.075-23.315 52.075-52.075 0-28.76-23.315-52.075-52.075-52.075-28.76 0-52.075 23.315-52.075 52.075 0 28.76 23.315 52.075 52.075 52.075z" data-fill-palette-color="accent" fill="#fffafe" stroke="transparent"></path></g><g transform="matrix(1,0,0,1,23.694383782371055,41.34038031684162)"><svg viewBox="0 0 65.09298067803915 29.800987609098026" height="29.800987609098026" width="65.09298067803915"><g><svg xmlns="http://www.w3.org/2000/svg" xmlns:xlink="http://www.w3.org/1999/xlink" version="1.1" x="0" y="0" viewBox="0.1402744143813982 24.269000000000002 99.85980765718202 45.71799999999999" enable-background="new 0 0 100 100" xml:space="preserve" width="65.09298067803915" height="29.800987609098026" class="icon-cg-0" data-fill-palette-color="accent" id="cg-0"><path d="M49.701 40.913c0.552-0.154 1.069-0.347 1.557-0.573 0.487-0.229 0.895-0.498 1.215-0.809 0.521-0.505 0.609-0.881 0.254-1.126-0.353-0.246-1.159-0.463-2.424-0.652l-3.882 3.685c0.478-0.025 1.008-0.08 1.587-0.164C48.584 41.188 49.15 41.069 49.701 40.913z" fill="#fffafe" data-fill-palette-color="accent"></path><path d="M51.33 34.744l3.326-3.112c-0.423 0.013-0.866 0.057-1.334 0.132-0.461 0.074-0.929 0.183-1.394 0.324-0.468 0.142-0.897 0.312-1.296 0.513-0.398 0.2-0.742 0.434-1.027 0.698-0.451 0.416-0.539 0.73-0.265 0.948C49.621 34.462 50.283 34.629 51.33 34.744z" fill="#fffafe" data-fill-palette-color="accent"></path><path d="M75.028 49.957c0.348 0 0.679-0.138 0.925-0.382l23.665-23.077c0.372-0.373 0.485-0.934 0.283-1.423-0.201-0.488-0.678-0.806-1.206-0.806h-72.69c-0.315 0-0.619 0.113-0.857 0.32L0.589 47.666c-0.41 0.357-0.557 0.932-0.366 1.441 0.19 0.512 0.679 0.85 1.224 0.85H75.028zM37.502 38.996l5.334-0.042c-0.807 0.717-1.043 1.281-0.714 1.693 0.333 0.415 1.015 0.679 2.053 0.792l4.264-3.989c-0.099-0.024-0.239-0.049-0.415-0.079-0.183-0.029-0.383-0.054-0.605-0.078-0.79-0.114-1.547-0.25-2.264-0.408-0.716-0.157-1.276-0.37-1.679-0.642-0.407-0.268-0.591-0.607-0.554-1.016 0.04-0.408 0.403-0.923 1.093-1.543 0.704-0.633 1.565-1.198 2.589-1.696 1.021-0.5 2.109-0.927 3.267-1.283 1.157-0.358 2.354-0.646 3.591-0.864 1.235-0.219 2.432-0.367 3.584-0.445l1.565-1.466 2.194-0.087-1.561 1.475c1.043 0.026 1.957 0.115 2.739 0.268 0.786 0.156 1.376 0.387 1.775 0.694 0.403 0.309 0.583 0.705 0.548 1.189-0.035 0.485-0.361 1.066-0.984 1.747l-5.31 0.125c0.517-0.517 0.663-0.948 0.445-1.292-0.221-0.343-0.749-0.502-1.595-0.478l-3.596 3.398c0.26 0.032 0.521 0.064 0.794 0.096 0.272 0.033 0.551 0.073 0.847 0.118 1.581 0.224 2.668 0.521 3.273 0.887 0.604 0.37 0.929 0.762 0.977 1.174 0.049 0.414-0.093 0.83-0.432 1.25-0.342 0.42-0.678 0.793-1.01 1.123-0.295 0.288-0.801 0.653-1.527 1.093-0.719 0.44-1.656 0.871-2.803 1.29-1.15 0.416-2.499 0.786-4.046 1.105-1.551 0.318-3.312 0.505-5.276 0.561l-1.727 1.631-2.263-0.021 1.733-1.622c-2.734-0.116-4.481-0.559-5.24-1.328C35.812 41.565 36.125 40.458 37.502 38.996z" fill="#fffafe" data-fill-palette-color="accent"></path><path d="M76.558 54.748H0.45v5.226h77.191c0.69 0 1.355-0.275 1.846-0.766L100 38.884v-7.58L76.558 54.748z" fill="#fffafe" data-fill-palette-color="accent"></path><path d="M0.45 64.761v5.226h79.804c0.691 0 1.356-0.276 1.846-0.766L100 51.398v-7.467L79.174 64.761H0.45z" fill="#fffafe" data-fill-palette-color="accent"></path></svg></g></svg></g></svg></g></svg></g><g></g></svg></g><defs></defs></svg><rect width="395.5199999999999" height="180.49012586155152" fill="none" stroke="none" visibility="hidden"></rect></g></svg></g></svg>