<svg xmlns="http://www.w3.org/2000/svg" version="1.1" xmlns:xlink="http://www.w3.org/1999/xlink"
    width="1500" height="681" viewBox="0 0 1500 681">
    <g transform="matrix(1,0,0,1,-0.9090909090911055,0.9271547547683099)">
        <svg viewBox="0 0 396 180" data-background-color="#00784a"
            preserveAspectRatio="xMidYMid meet" height="681" width="1500"
            xmlns="http://www.w3.org/2000/svg" xmlns:xlink="http://www.w3.org/1999/xlink">
            <g id="tight-bounds"
                transform="matrix(1,0,0,1,0.24000000000003752,-0.24506293077575947)">
                <svg viewBox="0 0 395.5199999999999 180.49012586155152" height="180.49012586155152"
                    width="395.5199999999999">
                    <g>
                        <svg viewBox="0 0 395.5199999999999 180.49012586155152"
                            height="180.49012586155152" width="395.5199999999999">
                            <g transform="matrix(1,0,0,1,141.51912587860932,0)">
                                <svg viewBox="0 0 112.48174824278126 112.48174824278126"
                                    height="112.48174824278126" width="112.48174824278126">
                                    <g>
                                        <svg></svg>
                                    </g>
                                    <g id="icon-0">
                                        <svg viewBox="0 0 112.48174824278126 112.48174824278126"
                                            height="112.48174824278126" width="112.48174824278126">
                                            <g>
                                                <path
                                                    d="M0 56.241c0-31.061 25.18-56.241 56.241-56.241 31.061 0 56.241 25.18 56.241 56.241 0 31.061-25.18 56.241-56.241 56.241-31.061 0-56.241-25.18-56.241-56.241zM56.241 108.316c28.76 0 52.075-23.315 52.075-52.075 0-28.76-23.315-52.075-52.075-52.075-28.76 0-52.075 23.315-52.075 52.075 0 28.76 23.315 52.075 52.075 52.075z"
                                                    data-fill-palette-color="accent" fill="#fffafe"
                                                    stroke="transparent"></path>
                                            </g>
                                            <g
                                                transform="matrix(1,0,0,1,23.694383782371055,41.34038031684162)">
                                                <svg
                                                    viewBox="0 0 65.09298067803915 29.800987609098026"
                                                    height="29.800987609098026"
                                                    width="65.09298067803915">
                                                    <g>
                                                        <svg xmlns="http://www.w3.org/2000/svg"
                                                            xmlns:xlink="http://www.w3.org/1999/xlink"
                                                            version="1.1" x="0" y="0"
                                                            viewBox="0.1402744143813982 24.269000000000002 99.85980765718202 45.71799999999999"
                                                            enable-background="new 0 0 100 100"
                                                            xml:space="preserve"
                                                            width="65.09298067803915"
                                                            height="29.800987609098026"
                                                            class="icon-cg-0"
                                                            data-fill-palette-color="accent"
                                                            id="cg-0"><path d="M49.701 40.913c0.552-0.154 1.069-0.347 1.557-0.573 0.487-0.229 0.895-0.498 1.215-0.809 0.521-0.505 0.609-0.881 0.254-1.126-0.353-0.246-1.159-0.463-2.424-0.652l-3.882 3.685c0.478-0.025 1.008-0.08 1.587-0.164C48.584 41.188 49.15 41.069 49.701 40.913z" fill="#fffafe" data-fill-palette-color="accent"></path><path d="M51.33 34.744l3.326-3.112c-0.423 0.013-0.866 0.057-1.334 0.132-0.461 0.074-0.929 0.183-1.394 0.324-0.468 0.142-0.897 0.312-1.296 0.513-0.398 0.2-0.742 0.434-1.027 0.698-0.451 0.416-0.539 0.73-0.265 0.948C49.621 34.462 50.283 34.629 51.33 34.744z" fill="#fffafe" data-fill-palette-color="accent"></path><path d="M75.028 49.957c0.348 0 0.679-0.138 0.925-0.382l23.665-23.077c0.372-0.373 0.485-0.934 0.283-1.423-0.201-0.488-0.678-0.806-1.206-0.806h-72.69c-0.315 0-0.619 0.113-0.857 0.32L0.589 47.666c-0.41 0.357-0.557 0.932-0.366 1.441 0.19 0.512 0.679 0.85 1.224 0.85H75.028zM37.502 38.996l5.334-0.042c-0.807 0.717-1.043 1.281-0.714 1.693 0.333 0.415 1.015 0.679 2.053 0.792l4.264-3.989c-0.099-0.024-0.239-0.049-0.415-0.079-0.183-0.029-0.383-0.054-0.605-0.078-0.79-0.114-1.547-0.25-2.264-0.408-0.716-0.157-1.276-0.37-1.679-0.642-0.407-0.268-0.591-0.607-0.554-1.016 0.04-0.408 0.403-0.923 1.093-1.543 0.704-0.633 1.565-1.198 2.589-1.696 1.021-0.5 2.109-0.927 3.267-1.283 1.157-0.358 2.354-0.646 3.591-0.864 1.235-0.219 2.432-0.367 3.584-0.445l1.565-1.466 2.194-0.087-1.561 1.475c1.043 0.026 1.957 0.115 2.739 0.268 0.786 0.156 1.376 0.387 1.775 0.694 0.403 0.309 0.583 0.705 0.548 1.189-0.035 0.485-0.361 1.066-0.984 1.747l-5.31 0.125c0.517-0.517 0.663-0.948 0.445-1.292-0.221-0.343-0.749-0.502-1.595-0.478l-3.596 3.398c0.26 0.032 0.521 0.064 0.794 0.096 0.272 0.033 0.551 0.073 0.847 0.118 1.581 0.224 2.668 0.521 3.273 0.887 0.604 0.37 0.929 0.762 0.977 1.174 0.049 0.414-0.093 0.83-0.432 1.25-0.342 0.42-0.678 0.793-1.01 1.123-0.295 0.288-0.801 0.653-1.527 1.093-0.719 0.44-1.656 0.871-2.803 1.29-1.15 0.416-2.499 0.786-4.046 1.105-1.551 0.318-3.312 0.505-5.276 0.561l-1.727 1.631-2.263-0.021 1.733-1.622c-2.734-0.116-4.481-0.559-5.24-1.328C35.812 41.565 36.125 40.458 37.502 38.996z" fill="#fffafe" data-fill-palette-color="accent"></path><path d="M76.558 54.748H0.45v5.226h77.191c0.69 0 1.355-0.275 1.846-0.766L100 38.884v-7.58L76.558 54.748z" fill="#fffafe" data-fill-palette-color="accent"></path><path d="M0.45 64.761v5.226h79.804c0.691 0 1.356-0.276 1.846-0.766L100 51.398v-7.467L79.174 64.761H0.45z" fill="#fffafe" data-fill-palette-color="accent"></path></svg>
                                                    </g>
                                                </svg>
                                            </g>
                                        </svg>
                                    </g>
                                </svg>
                            </g>
                            <g></g>
                        </svg>
                    </g>
                    <defs></defs>
                </svg>
                <rect width="395.5199999999999" height="180.49012586155152" fill="none"
                    stroke="none" visibility="hidden"></rect>
            </g>
        </svg>
    </g>
</svg>